<?xml version="1.0" encoding="utf-8"?>
<!-- Generator: Adobe Illustrator 19.2.0, SVG Export Plug-In . SVG Version: 6.00 Build 0)  -->
<svg version="1.1" xmlns="http://www.w3.org/2000/svg" xmlns:xlink="http://www.w3.org/1999/xlink" x="0px" y="0px"
	 viewBox="0 0 300 300" style="enable-background:new 0 0 300 300;" xml:space="preserve">
<style type="text/css">
	.st6{fill-rule:evenodd;clip-rule:evenodd;fill:#FFFFFF;}
	.st11{fill:#595959;}
</style>
<g id="email">
	<circle class="st11" cx="150" cy="150" r="150"/>
	<g>
		<g>
			<path class="st6" d="M154.4,159.3c14.3-2.8,21.4-12.6,30.8-20.1c15.1-12.8,30.2-25.6,45.3-38.3H69.8
				c20.4,17.4,40.8,34.9,61.2,52.3C136,156.7,145,161.2,154.4,159.3z M118.5,151.4c-18.2-15.6-36.5-31.2-54.7-46.7v98.1h0.5
				c17.4-16.4,34.9-32.7,52.3-49.1C117.2,152.9,117.8,152.2,118.5,151.4z M182,151.4c15.3,14.3,30.5,28.7,45.8,43l8.4,8.4v-98.1
				C218.2,120.2,200.1,135.8,182,151.4z M134.3,162.6c-3.7-2.3-7.5-4.7-11.2-7c-17.9,17-35.8,34-53.7,50.9c-0.2,0.3-0.3,0.6-0.5,0.9
				h162.6c-18.2-17.3-36.5-34.6-54.7-51.9C165.5,162.2,151.2,169.9,134.3,162.6z"/>
		</g>
	</g>
</g>
</svg>
