<?xml version="1.0" encoding="utf-8"?>
<!-- Generator: Adobe Illustrator 19.2.0, SVG Export Plug-In . SVG Version: 6.00 Build 0)  -->
<svg version="1.1" xmlns="http://www.w3.org/2000/svg" xmlns:xlink="http://www.w3.org/1999/xlink" x="0px" y="0px"
	 viewBox="0 0 300 300" style="enable-background:new 0 0 300 300;" xml:space="preserve">
<style type="text/css">
	.st0{fill:#3961A7;}
	.st1{fill-rule:evenodd;clip-rule:evenodd;fill:#FFFFFF;}
</style>
<g id="facebook">
	<circle class="st0" cx="150" cy="150" r="150"/>
	<path class="st1" d="M188.3,67.6c0,9.5,0,18.9,0,28.4c-7.5,0.4-14.9,0.9-22.4,1.3c-3.7,5.5-3.5,14.6-3.3,24.4c8.6,0,17.1,0,25.7,0
		c-1.1,9.5-2.2,18.9-3.3,28.4c-7.5,0-14.9,0-22.4,0c0,27.5,0,55,0,82.4c-11.4-0.2-22.9-0.4-34.3-0.7c0-27.3,0-54.5,0-81.8
		c-5.5,0-11,0-16.5,0c0-9.5,0-18.9,0-28.4c5.5,0,11,0,16.5,0C127.3,71.8,138.9,66.7,188.3,67.6z"/>
</g>
</svg>
