<?xml version="1.0" encoding="utf-8"?>
<!-- Generator: Adobe Illustrator 19.2.0, SVG Export Plug-In . SVG Version: 6.00 Build 0)  -->
<svg version="1.1" xmlns="http://www.w3.org/2000/svg" xmlns:xlink="http://www.w3.org/1999/xlink" x="0px" y="0px"
	 viewBox="0 0 300 300" style="enable-background:new 0 0 300 300;" xml:space="preserve">
<style type="text/css">
	.st3{fill:#21B1F7;}
	.st4{fill-rule:evenodd;clip-rule:evenodd;fill:#FFFFFF;}
</style>
<g id="twitter">
	<circle class="st3" cx="150" cy="150" r="150"/>
	<path class="st4" d="M179.3,95.2c11.5,1.8,16.6,4.7,23.7,10c8.4-0.5,13.3-4.9,20-6.9c0,0.2,0,0.4,0,0.5
		c-3.3,7.4-7.6,10.9-12.7,16.4c5.5-1.4,10.9-2.8,16.4-4.2c0,0.2,0,0.4,0,0.5c-0.4,0.4-0.7,0.7-1.1,1.1c-2.5,5.8-9.3,11.2-14.2,14.8
		c2.9,10.8-2.3,26-5.3,33.8c-11.4,29.9-31.5,51.5-64.9,59.1c-23.4,5.3-56.2-0.1-68.1-12.1c0-0.2,0-0.4,0-0.5
		c17.5,1.6,37.2-3.4,45.4-13.2c-14.3-0.1-26.7-10.1-29-22.2c3.9,0.5,9.4,1,12.7-0.5c0-0.2,0-0.4,0-0.5C88.2,168.8,78.4,156,78,140
		c0.2,0,0.4,0,0.5,0c3.9,1.9,7.6,3.4,13.2,3.7c-0.4-0.5-0.7-1.1-1.1-1.6c-10.6-4.8-17.1-28.9-7.9-40.6c4.6,4.6,9.1,9.1,13.7,13.7
		c14.5,11.1,29.5,15.3,51.7,19.5c-1.2-19.6,5.9-32,20-37.5C171.9,96.6,175.6,95.9,179.3,95.2z"/>
</g>
</svg>
